<?xml version="1.0" standalone="no"?><!DOCTYPE svg PUBLIC "-//W3C//DTD SVG 1.1//EN" "http://www.w3.org/Graphics/SVG/1.1/DTD/svg11.dtd"><svg t="1726127115609" class="icon" viewBox="0 0 1024 1024" version="1.1" xmlns="http://www.w3.org/2000/svg" p-id="11546" xmlns:xlink="http://www.w3.org/1999/xlink" width="200" height="200"><path d="M160.3 127.9h704c17.7 0 32 14.3 32 32v704c0 17.7-14.3 32-32 32h-704c-17.7 0-32-14.3-32-32v-704c0-17.6 14.3-32 32-32z" fill="#EF6D64" p-id="11547"></path><path d="M239 446.7v18.2c0 20.1 16.3 36.4 36.4 36.4h200.2v-91H275.4c-20.1 0-36.4 16.3-36.4 36.4z m54.6 309.4c0 20.1 16.3 36.4 36.4 36.4h145.6V537.7h-182v218.4zM548.4 374h54.5c36.4 0 64.5-10.4 88.5-32.7 28-26.1 28-68.4 0-94.5-12.9-12-29.5-18.4-47.9-18.4-17.1 0-35.1 5.7-50.8 16.2-24.3 16.1-58.8 51.3-80.8 77.7-22-26.4-56.5-61.6-80.8-77.7-15.7-10.4-33.7-16.2-50.8-16.2-18.4 0-34.9 6.4-47.9 18.4-28 26-28 68.4 0 94.5 24 22.3 52.1 32.7 88.5 32.7h54.6v-0.1h34.4c0.6-0.1 1.3-0.1 1.9-0.2 0.6 0.1 1.2 0.2 1.9 0.2h34.6v0.1zM421 332c-24.6 0-41-5.9-56.5-20.4-10.4-9.7-10.4-25.4 0-35.1 4.4-4.1 9.6-6.1 15.9-6.1 7.7 0 16.5 3 24.6 8.3 15.6 10.4 38.6 32.7 57.3 53.2H421z m198-53.2c14.7-9.8 30.7-11.4 40.5-2.3 10.4 9.7 10.4 25.4 0 35.1-15.6 14.5-32 20.4-56.5 20.4h-41.3c18.6-20.5 41.6-42.9 57.3-53.2z m129.6 131.5H548.4v91h200.2c20.1 0 36.4-16.3 36.4-36.4v-18.2c0-20.1-16.3-36.4-36.4-36.4zM548.4 792.5H694c20.1 0 36.4-16.3 36.4-36.4V537.7h-182v254.8z" fill="#FFFFFF" p-id="11548"></path></svg>