<?xml version="1.0" standalone="no"?><!DOCTYPE svg PUBLIC "-//W3C//DTD SVG 1.1//EN" "http://www.w3.org/Graphics/SVG/1.1/DTD/svg11.dtd"><svg t="1726816101348" class="icon" viewBox="0 0 1024 1024" version="1.1" xmlns="http://www.w3.org/2000/svg" p-id="7378" xmlns:xlink="http://www.w3.org/1999/xlink" width="200" height="200"><path d="M336.7 627.7c-8.2 0-16.5-2.7-23.5-8.2-16.2-13-18.8-36.6-5.9-52.8l100.2-125.3c13-16.2 36.6-18.8 52.8-5.9l96.9 77.5L684 365.2c13.5-15.8 37.3-17.6 53-4.1 15.8 13.5 17.6 37.2 4.1 53L590.8 589.5c-13.2 15.4-36.2 17.5-52 4.9l-95.9-76.7-76.7 95.9c-7.5 9.3-18.5 14.1-29.5 14.1z" fill="#29CCB6" p-id="7379"></path><path d="M311.7 63.9h400.9v75.2H311.7zM913 189.2H36.1v100.2h75.2v551.2h154.6l-64.8 64.8c-19.6 19.6-19.6 51.3 0 70.9 9.8 9.8 22.6 14.7 35.4 14.7s25.7-4.9 35.4-14.7l135.7-135.7h210.5l134.1 135.5c9.8 9.9 22.7 14.9 35.6 14.9 12.7 0 25.5-4.8 35.2-14.5 19.7-19.5 19.8-51.2 0.4-70.9l-64.3-65H913V289.4h75.2V189.2H913zM812.8 740.4H643.4c-3.3-0.3-6.5-0.3-9.8 0H211.4v-451h601.3v451z" fill="#4585F5" p-id="7380"></path></svg>